# xmcd
#
# Track frame offsets: 
#        150
#        13439
#        33198
#        72080
#        113697
#        143685
#        152420
#        171987
#        237917
#        283448
#
# Disc length: 4217 seconds
#
# Revision: 0
# Processed by: cddbd v1.5.2PL0 Copyright (c) Steve Scherf et al.
# Submitted via: ExactAudioCopy v0.95b3
#
DISCID=8710770a
DTITLE=Jimi Hendrix  - Rockin' The USA Vol.1- Disc 6
DYEAR=1900
DGENRE=
TTITLE0=Introduction
TTITLE1=Fire
TTITLE2=I Don't Live Today
TTITLE3=Hear My Train A Comin'
TTITLE4=Spanish Castle Magic
TTITLE5=Rap And Tune-Up
TTITLE6=Foxy Lady
TTITLE7=Red House
TTITLE8=Sunshine Of Your Love,The
TTITLE9=Purple Haze
EXTD=
EXTT0=
EXTT1=
EXTT2=
EXTT3=
EXTT4=
EXTT5=
EXTT6=
EXTT7=
EXTT8=
EXTT9=
PLAYORDER=
